<svg width="28" height="28" viewBox="0 0 28 28" fill="none" xmlns="http://www.w3.org/2000/svg">
<path fill-rule="evenodd" clip-rule="evenodd" d="M14 24.5C19.799 24.5 24.5 19.799 24.5 14C24.5 8.20101 19.799 3.5 14 3.5C8.20101 3.5 3.5 8.20101 3.5 14C3.5 19.799 8.20101 24.5 14 24.5ZM19.4349 11.1402C19.7885 10.7159 19.7311 10.0853 19.3069 9.73178C18.8826 9.37821 18.252 9.43554 17.8984 9.85982L13.4672 15.1774C13.1204 15.5934 12.9255 15.8238 12.7699 15.9653L12.764 15.9707L12.7576 15.9659C12.5898 15.839 12.3748 15.6272 11.9918 15.2443L10.0404 13.2929C9.64992 12.9024 9.01675 12.9024 8.62623 13.2929C8.2357 13.6834 8.2357 14.3166 8.62623 14.7071L10.5776 16.6585L10.6184 16.6993C10.9449 17.0259 11.259 17.3402 11.5513 17.5611C11.8786 17.8087 12.3074 18.0415 12.8568 18.0165C13.4062 17.9916 13.8121 17.721 14.1157 17.4448C14.3867 17.1983 14.6711 16.8569 14.9666 16.5021L15.0036 16.4577L19.4349 11.1402Z" fill="#375C6F"/>
</svg>
