<svg width="18" height="21" viewBox="0 0 18 21" fill="none" xmlns="http://www.w3.org/2000/svg">
<path d="M2.92681 11.719L8.40358 17.7214C8.61364 17.9516 8.71867 18.0667 8.84262 18.1078C8.94481 18.1417 9.05519 18.1417 9.15738 18.1078C9.28133 18.0667 9.38636 17.9516 9.59642 17.7214L15.0732 11.719C16.3523 10.3172 16.5125 8.22436 15.4616 6.64414L14.9288 5.84287C13.5234 3.72965 10.3269 4.04802 9.36603 6.39692C9.23199 6.72457 8.768 6.72457 8.63397 6.39692C7.67305 4.04802 4.47659 3.72965 3.07125 5.84286L2.53838 6.64414C1.4875 8.22436 1.64768 10.3172 2.92681 11.719Z" stroke="#453528"/>
</svg>
