<svg width="40" height="40" viewBox="0 0 40 40" fill="none" xmlns="http://www.w3.org/2000/svg">
<path d="M20.3965 29.8092L20.8436 30.7037L20.8436 30.7037L20.3965 29.8092ZM19.6033 29.8092L20.0504 28.9147L20.0504 28.9147L19.6033 29.8092ZM30.6666 15C30.6666 18.9708 28.5617 22.1756 26.1005 24.5653C23.6425 26.9518 20.9267 28.4263 19.9494 28.9147L20.8436 30.7037C21.9077 30.1718 24.827 28.5893 27.4937 26.0002C30.1572 23.4141 32.6666 19.7246 32.6666 15H30.6666ZM19.9999 4.33334C25.891 4.33334 30.6666 9.10897 30.6666 15H32.6666C32.6666 8.0044 26.9955 2.33334 19.9999 2.33334V4.33334ZM9.33325 15C9.33325 9.10897 14.1089 4.33334 19.9999 4.33334V2.33334C13.0043 2.33334 7.33325 8.0044 7.33325 15H9.33325ZM20.0504 28.9147C19.0731 28.4263 16.3574 26.9518 13.8994 24.5653C11.4382 22.1756 9.33325 18.9708 9.33325 15H7.33325C7.33325 19.7246 9.84265 23.4141 12.5062 26.0002C15.1728 28.5893 18.0921 30.1718 19.1562 30.7037L20.0504 28.9147ZM19.9494 28.9147C19.9564 28.9112 19.9745 28.9047 19.9999 28.9047C20.0254 28.9047 20.0434 28.9112 20.0504 28.9147L19.1562 30.7037C19.6925 30.9718 20.3073 30.9717 20.8436 30.7037L19.9494 28.9147ZM23.9999 15C23.9999 17.2092 22.2091 19 19.9999 19V21C23.3136 21 25.9999 18.3137 25.9999 15H23.9999ZM19.9999 11C22.2091 11 23.9999 12.7909 23.9999 15H25.9999C25.9999 11.6863 23.3136 9.00001 19.9999 9.00001V11ZM15.9999 15C15.9999 12.7909 17.7908 11 19.9999 11V9.00001C16.6862 9.00001 13.9999 11.6863 13.9999 15H15.9999ZM19.9999 19C17.7908 19 15.9999 17.2092 15.9999 15H13.9999C13.9999 18.3137 16.6862 21 19.9999 21V19Z" fill="#273B4A"/>
<path d="M32.9904 29.1667C34.3069 29.9268 35 30.789 35 31.6667C35 32.5443 34.3069 33.4066 32.9904 34.1667C31.6739 34.9268 29.7803 35.5579 27.5 35.9968C25.2197 36.4356 22.6331 36.6667 20 36.6667C17.367 36.6667 14.7803 36.4356 12.5 35.9968C10.2197 35.5579 8.32615 34.9268 7.00962 34.1667C5.69309 33.4066 5 32.5443 5 31.6667C5 30.789 5.69309 29.9268 7.00962 29.1667" stroke="#33363F" stroke-width="2" stroke-linecap="round"/>
</svg>
