<svg width="28" height="24" viewBox="0 0 28 24" fill="none" xmlns="http://www.w3.org/2000/svg">
<path fill-rule="evenodd" clip-rule="evenodd" d="M14 2C11.3766 2 9.02961 3.30484 7.88501 5.31606C7.72387 5.5992 7.61705 5.78656 7.53529 5.9185C7.51596 5.9497 7.50022 5.97421 7.48757 5.99329L7.46426 5.99465C7.36614 5.99969 7.23102 6 7 6C4.66489 6 2.5 7.65179 2.5 10C2.5 12.3482 4.66489 14 7 14H7.42682L9.76015 12H7C5.46911 12 4.5 10.9655 4.5 10C4.5 9.0345 5.46911 8 7 8L7.02196 8C7.22346 8.00001 7.41099 8.00002 7.56682 7.99202C7.7281 7.98374 7.93105 7.96451 8.14011 7.89337C8.2374 7.86026 8.3667 7.81333 8.50384 7.73358C8.64098 7.65384 8.74573 7.56467 8.82262 7.49649C9.00628 7.33365 9.14333 7.12048 9.23535 6.97197C9.33928 6.80425 9.46473 6.58381 9.61331 6.32273L9.62323 6.3053C10.3728 4.98819 12.0122 4 14 4C15.8824 4 17.4572 4.88773 18.2537 6.10405L18.2703 6.12942C18.5188 6.50887 18.7286 6.82921 18.9046 7.06759C19.0606 7.27891 19.2967 7.58184 19.6253 7.75946C19.9176 7.91743 20.2177 7.96268 20.4605 7.98186C20.6908 8.00005 20.9687 8.00003 21.2648 8L21.2983 8H21.5C22.6046 8 23.5 8.89543 23.5 10C23.5 11.1046 22.6046 12 21.5 12H18.2398L20.5732 14H21.5C23.7091 14 25.5 12.2091 25.5 10C25.5 7.79086 23.7091 6 21.5 6H21.2983C20.9569 6 20.7597 5.99926 20.618 5.98807L20.5955 5.98613C20.574 5.95966 20.5469 5.92491 20.5136 5.87976C20.3752 5.69229 20.1964 5.41997 19.9269 5.00836C18.7255 3.17379 16.4898 2 14 2ZM7.45074 6.04547L7.45239 6.04343C7.45129 6.04484 7.45074 6.0455 7.45074 6.04547ZM20.6553 6.05342C20.6553 6.05345 20.6544 6.05272 20.6528 6.05112L20.6553 6.05342Z" fill="#375C6F"/>
<path d="M13.9999 12L13.3491 11.2407L13.9999 10.6829L14.6507 11.2407L13.9999 12ZM14.9999 21C14.9999 21.5523 14.5522 22 13.9999 22C13.4476 22 12.9999 21.5523 12.9999 21L14.9999 21ZM8.68246 15.2407L13.3491 11.2407L14.6507 12.7593L9.98404 16.7593L8.68246 15.2407ZM14.6507 11.2407L19.3174 15.2407L18.0158 16.7593L13.3491 12.7593L14.6507 11.2407ZM14.9999 12L14.9999 21L12.9999 21L12.9999 12L14.9999 12Z" fill="#375C6F"/>
</svg>
